<?xml version="1.0" standalone="no"?>
<!DOCTYPE svg PUBLIC "-//W3C//DTD SVG 20010904//EN"
 "http://www.w3.org/TR/2001/REC-SVG-20010904/DTD/svg10.dtd">
<svg version="1.0" xmlns="http://www.w3.org/2000/svg"
 width="2048.000000pt" height="2048.000000pt" viewBox="0 0 2048.000000 2048.000000"
 preserveAspectRatio="xMidYMid meet">

<g transform="translate(0.000000,2048.000000) scale(0.100000,-0.100000)"
fill="#000000" stroke="none">
<path d="M5610 17551 c0 -11 -4 -23 -10 -26 -5 -3 -7 0 -4 8 3 8 1 18 -5 22
-6 3 -11 -2 -12 -12 0 -10 -3 -13 -6 -5 -8 20 -25 13 -18 -8 5 -14 2 -20 -10
-20 -10 0 -14 5 -10 13 4 6 -1 3 -9 -7 -9 -11 -16 -27 -16 -36 0 -9 -3 -20 -7
-24 -5 -4 -8 -11 -8 -14 0 -4 -13 -28 -28 -54 -16 -25 -39 -88 -54 -140 -14
-51 -29 -102 -34 -113 -4 -11 -11 -36 -14 -55 -18 -112 -25 -153 -39 -223 -16
-79 -22 -121 -32 -212 -8 -78 -11 -104 -23 -190 -6 -44 -13 -111 -15 -150 -3
-38 -6 -70 -6 -70 -2 0 -6 -38 -14 -130 -4 -38 -9 -88 -12 -110 -3 -22 -8 -76
-10 -120 -5 -84 -12 -180 -19 -255 -2 -25 -6 -125 -9 -223 -3 -98 -8 -182 -11
-187 -8 -13 -9 -196 -1 -209 4 -7 3 -17 -2 -24 -10 -12 -8 -219 2 -235 2 -4 6
-52 8 -105 1 -53 6 -97 10 -97 5 0 8 -14 8 -31 0 -17 4 -38 9 -48 6 -10 6 -33
1 -56 -6 -26 -5 -46 3 -59 6 -12 10 -33 8 -48 -1 -16 2 -28 8 -28 7 0 7 -8 2
-22 -4 -13 -5 -35 0 -50 4 -15 5 -36 2 -46 -2 -11 -1 -22 4 -25 4 -3 8 -44 7
-91 -1 -47 1 -86 5 -86 3 0 6 -93 6 -207 -1 -115 2 -229 5 -255 4 -27 3 -48
-1 -48 -5 0 -6 -6 -3 -13 9 -24 11 -261 3 -316 -5 -30 -5 -59 -1 -65 5 -9 14
-1048 12 -1466 -1 -52 -1 -126 -1 -165 0 -38 0 -106 -1 -150 0 -44 0 -91 1
-105 1 -14 2 -34 2 -45 -2 -125 1 -290 5 -297 3 -4 1 -8 -5 -8 -9 0 -6 -130 4
-158 3 -7 0 -10 -5 -7 -7 4 -9 -4 -5 -22 7 -35 8 -480 1 -491 -3 -5 -1 -25 4
-45 4 -22 4 -39 -1 -43 -5 -3 -6 -10 -3 -16 4 -6 6 -34 6 -62 -1 -28 -2 -296
-1 -596 0 -300 -1 -552 -1 -560 -5 -134 -5 -735 0 -762 4 -21 5 -38 1 -38 -3
0 -7 -118 -8 -263 -1 -144 -3 -344 -5 -444 -2 -101 -1 -183 2 -183 8 0 5 -48
-3 -56 -3 -3 -4 -25 -1 -48 10 -89 11 -172 3 -194 -6 -15 -5 -21 1 -17 13 8
13 3 0 -30 -6 -15 -7 -32 -3 -38 4 -7 6 -28 4 -47 -7 -69 -6 -75 2 -81 6 -4 4
-28 -4 -57 -10 -41 -10 -54 0 -66 7 -8 10 -20 6 -26 -10 -17 -14 -961 -4 -987
5 -13 4 -25 -2 -28 -5 -4 -7 -21 -4 -38 3 -18 6 -41 5 -52 -3 -113 -11 -759
-9 -830 0 -20 -11 -440 -13 -460 -3 -44 14 -320 21 -339 6 -13 7 -27 4 -30 -4
-3 -2 -6 4 -6 5 0 10 -6 11 -12 1 -15 10 -52 12 -55 2 -2 3 -6 4 -10 3 -14 59
-98 68 -101 4 -2 6 -8 3 -12 -3 -5 5 -14 17 -21 13 -7 30 -19 38 -28 20 -21
89 -66 115 -74 95 -29 155 -43 155 -35 0 5 6 6 13 1 13 -8 45 -11 197 -17 52
-2 100 0 105 4 6 5 17 5 25 0 7 -4 24 -4 37 1 14 5 23 5 23 -1 0 -17 21 -11
41 13 10 12 18 16 19 10 0 -7 -5 -13 -11 -13 -5 0 -7 -5 -3 -11 5 -8 9 -7 15
4 7 12 21 15 61 11 29 -2 57 1 64 7 8 6 23 9 33 6 15 -3 18 -1 14 12 -4 14 -3
14 9 -1 11 -12 24 -15 55 -11 23 3 43 1 47 -5 7 -11 46 -4 46 8 0 8 62 -2 93
-15 10 -4 17 -3 17 4 0 9 5 9 20 1 12 -6 29 -9 39 -5 10 3 24 -1 31 -10 9 -11
16 -12 26 -4 7 6 23 8 36 3 13 -4 42 -8 65 -9 23 -2 46 -6 52 -10 6 -3 11 -1
11 5 0 6 5 8 12 4 7 -4 28 -7 48 -6 19 1 50 -2 68 -7 17 -5 32 -6 32 -2 0 4
14 8 30 9 19 1 30 -2 30 -10 0 -10 2 -10 8 -1 7 11 62 13 62 2 0 -5 34 -4 50
1 22 7 143 0 153 -9 8 -6 17 -8 21 -4 11 12 48 14 61 3 6 -5 14 -7 18 -4 10
10 128 13 122 3 -7 -11 2 -11 30 0 11 5 28 5 37 0 10 -6 19 -5 23 1 4 6 11 8
16 4 14 -8 113 -9 126 -1 6 4 16 0 23 -8 9 -11 17 -12 30 -5 10 6 26 7 36 3
13 -5 15 -3 9 7 -6 9 -4 11 5 5 16 -10 101 -16 114 -8 14 9 66 12 66 3 0 -9
48 -5 74 5 14 6 17 5 12 -3 -5 -8 3 -12 24 -12 20 0 29 4 24 11 -4 8 -1 8 12
1 31 -16 97 -19 124 -5 13 7 27 9 30 5 3 -4 16 -8 30 -8 14 -1 36 -3 50 -5 16
-3 24 0 23 9 -2 6 6 12 18 12 11 0 18 -4 15 -8 -2 -4 9 -9 25 -10 22 -2 28 1
23 10 -6 10 -5 10 7 1 16 -13 69 -11 103 3 13 5 17 4 13 -4 -9 -14 105 -12
116 3 4 7 10 7 15 0 10 -13 85 -18 77 -5 -3 5 3 10 14 10 12 0 21 -4 21 -9 0
-6 9 -9 20 -8 11 1 20 4 20 7 0 3 23 6 50 6 28 1 50 -3 50 -7 0 -13 38 -11 45
1 5 8 11 8 19 1 13 -11 54 -9 73 2 6 4 14 1 16 -5 4 -10 6 -10 6 0 1 14 31 17
31 2 0 -5 9 -10 20 -10 11 0 20 4 20 10 0 6 10 6 27 -1 18 -7 30 -6 37 1 14
14 43 13 49 -2 3 -9 8 -10 18 -3 8 6 41 10 74 10 33 -1 66 3 74 9 12 9 13 7 8
-6 -4 -12 -2 -18 8 -18 8 0 15 5 15 10 0 6 19 9 44 8 24 -2 42 -6 39 -11 -2
-4 0 -7 6 -7 5 0 12 4 15 9 3 5 15 11 27 14 15 4 19 2 15 -9 -6 -15 6 -19 18
-7 11 11 118 14 111 3 -6 -9 6 -8 57 5 15 4 33 3 40 -2 17 -10 78 -12 78 -2 0
8 59 5 117 -5 18 -3 35 -1 38 4 4 6 21 8 40 4 18 -3 35 -1 39 4 4 7 22 5 51
-4 25 -7 44 -10 41 -6 -2 4 48 7 112 7 65 -1 123 3 130 8 6 5 12 6 12 1 0 -5
15 -9 34 -9 19 0 32 3 30 7 -3 4 1 8 10 8 8 0 16 -3 18 -8 2 -4 41 -5 88 -2
47 4 91 4 98 0 7 -3 36 -3 65 0 34 5 55 3 60 -4 5 -8 10 -7 16 3 6 9 16 11 32
5 36 -11 79 -13 85 -3 6 11 90 2 116 -12 13 -7 24 -7 31 -1 16 13 95 13 103 1
3 -6 10 -6 17 -1 17 13 58 22 51 11 -3 -5 -1 -9 5 -9 5 0 12 4 16 9 3 6 17 6
34 1 16 -4 32 -6 34 -3 3 3 13 0 23 -5 13 -7 22 -6 32 4 9 9 19 11 29 5 9 -4
24 -6 33 -4 10 3 27 0 37 -6 15 -7 25 -6 40 4 15 11 29 12 54 5 18 -5 37 -6
41 -2 5 5 30 6 57 2 26 -3 61 -3 76 2 20 5 32 3 37 -5 5 -8 11 -8 16 -2 4 6
43 9 87 8 44 -1 89 -2 100 -3 11 0 106 2 210 5 264 7 325 6 346 -5 12 -7 20
-6 25 1 4 7 20 9 40 6 19 -3 34 -1 34 4 0 5 10 4 23 -3 28 -15 47 -19 47 -8 0
12 292 9 308 -3 6 -5 12 -6 12 -1 0 5 78 10 173 10 150 1 289 7 472 18 83 6
205 21 213 26 1 2 7 4 12 5 6 1 11 3 13 5 1 1 11 3 22 5 22 3 109 22 140 29
41 11 121 38 139 47 12 7 16 7 12 0 -5 -7 -1 -8 9 -5 12 5 13 10 5 18 -8 8
-1110 12 -4123 13 -2826 2 -4133 6 -4181 13 -82 13 -197 56 -266 100 -124 80
-247 250 -281 390 -12 46 -14 1017 -14 5880 0 3204 2 6030 5 6280 8 685 1
1267 -14 1280 -8 6 -12 32 -12 68 1 37 -3 63 -11 71 -10 9 -13 8 -13 -8z
m3765 -14241 c3 -5 1 -10 -4 -10 -6 0 -11 5 -11 10 0 6 2 10 4 10 3 0 8 -4 11
-10z"/>
<path d="M6000 14780 c44 -39 154 -84 255 -105 104 -22 348 -32 665 -29 140 2
311 3 379 3 68 1 122 3 120 6 -3 2 -156 7 -340 9 -730 11 -868 27 -1059 120
l-55 27 35 -31z"/>
<path d="M7448 14653 c6 -2 18 -2 25 0 6 3 1 5 -13 5 -14 0 -19 -2 -12 -5z"/>
<path d="M7553 14653 c15 -2 37 -2 50 0 12 2 0 4 -28 4 -27 0 -38 -2 -22 -4z"/>
<path d="M7638 14653 c7 -3 16 -2 19 1 4 3 -2 6 -13 5 -11 0 -14 -3 -6 -6z"/>
<path d="M7798 14653 c7 -3 16 -2 19 1 4 3 -2 6 -13 5 -11 0 -14 -3 -6 -6z"/>
<path d="M7848 14653 c7 -3 16 -2 19 1 4 3 -2 6 -13 5 -11 0 -14 -3 -6 -6z"/>
<path d="M8578 14653 c7 -3 16 -2 19 1 4 3 -2 6 -13 5 -11 0 -14 -3 -6 -6z"/>
<path d="M8848 14653 c6 -2 18 -2 25 0 6 3 1 5 -13 5 -14 0 -19 -2 -12 -5z"/>
<path d="M8918 14653 c12 -2 30 -2 40 0 9 3 -1 5 -23 4 -22 0 -30 -2 -17 -4z"/>
<path d="M8998 14653 c12 -2 30 -2 40 0 9 3 -1 5 -23 4 -22 0 -30 -2 -17 -4z"/>
<path d="M9073 14653 c9 -2 25 -2 35 0 9 3 1 5 -18 5 -19 0 -27 -2 -17 -5z"/>
<path d="M9152 14655 c9 -9 98 -13 131 -5 24 6 10 8 -52 9 -46 1 -82 -1 -79
-4z"/>
<path d="M9342 14649 c17 -7 38 -7 60 0 30 8 28 9 -27 9 -50 0 -56 -1 -33 -9z"/>
<path d="M9444 14653 c7 -8 287 -5 295 3 2 2 -65 4 -149 4 -84 0 -150 -3 -146
-7z"/>
<path d="M9759 14651 c12 -8 51 -4 51 5 0 2 -15 4 -32 4 -23 0 -29 -3 -19 -9z"/>
<path d="M9838 14653 c7 -3 16 -2 19 1 4 3 -2 6 -13 5 -11 0 -14 -3 -6 -6z"/>
<path d="M9888 14653 c7 -3 16 -2 19 1 4 3 -2 6 -13 5 -11 0 -14 -3 -6 -6z"/>
<path d="M10018 14653 c7 -3 16 -2 19 1 4 3 -2 6 -13 5 -11 0 -14 -3 -6 -6z"/>
<path d="M7134 12258 c3 -13 6 -26 6 -29 0 -3 28 -5 63 -3 34 1 134 5 222 8
88 3 1525 7 3192 8 l3033 3 25 -25 c28 -28 34 -46 42 -135 5 -60 15 -77 43
-72 12 2 16 26 18 135 l3 132 -3327 0 -3326 0 6 -22z"/>
<path d="M10436 11003 c-3010 -3 -3308 -4 -3302 -19 3 -9 6 -19 6 -24 0 -5 39
-6 88 -3 48 3 1509 6 3248 7 3462 1 3203 6 3224 -58 5 -17 11 -60 12 -96 3
-69 9 -80 46 -80 23 0 23 0 20 137 -3 114 -6 138 -18 138 -8 0 -1504 -1 -3324
-2z"/>
<path d="M7134 9429 c3 -17 6 -35 6 -40 0 -4 12 -4 28 1 77 25 320 28 3362 37
2981 9 2969 10 3095 -13 35 -6 71 -33 73 -54 0 -8 5 -41 11 -74 6 -32 10 -61
9 -65 -4 -31 4 -41 32 -41 l30 0 0 140 0 140 -3326 0 -3326 0 6 -31z"/>
<path d="M7130 8051 c0 -10 3 -32 6 -49 l6 -31 32 16 c20 11 63 17 126 19 52
2 138 6 190 9 193 10 6014 14 6090 4 100 -13 127 -45 132 -154 3 -64 10 -75
46 -75 22 0 22 1 22 140 l0 140 -3325 0 c-3244 0 -3325 0 -3325 -19z"/>
<path d="M4710 2656 c0 -2 8 -10 18 -17 15 -13 16 -12 3 4 -13 16 -21 21 -21
13z"/>
<path d="M4750 2623 c0 -14 94 -96 160 -141 214 -142 399 -206 650 -223 220
-15 9365 -6 9450 9 133 24 253 59 244 73 -3 5 -2 8 3 7 10 -3 73 19 73 26 0 5
-117 -1 -165 -8 -11 -2 -40 -6 -65 -10 -125 -18 305 -17 -6140 -11 -1840 1
-3374 5 -3410 8 -76 8 -125 14 -160 21 -14 3 -38 8 -55 11 -73 14 -336 114
-355 135 -3 3 -9 5 -15 6 -5 0 -28 9 -50 19 -22 10 -43 19 -48 19 -4 1 -22 13
-40 27 -30 24 -77 43 -77 32z"/>
</g>
</svg>
